<svg version="1.1" id="Layer_1" xmlns="http://www.w3.org/2000/svg" xmlns:xlink="http://www.w3.org/1999/xlink" x="0px" y="0px"
	 width="100%" viewBox="0 0 460 512" enable-background="new 0 0 460 512" xml:space="preserve">
<path fill="#FFFEFE" opacity="1.000000" stroke="none" 
	d="
M299.000000,513.000000 
	C199.333359,513.000000 100.166718,513.000000 1.000053,513.000000 
	C1.000036,342.333405 1.000036,171.666794 1.000018,1.000145 
	C154.333237,1.000097 307.666473,1.000097 460.999756,1.000048 
	C460.999847,171.666519 460.999847,342.333038 460.999939,512.999756 
	C407.166656,513.000000 353.333344,513.000000 299.000000,513.000000 
M115.744263,196.685806 
	C117.826340,200.474350 119.575348,204.496506 122.043091,208.014526 
	C142.075104,236.572250 157.351379,267.445282 167.500076,300.820801 
	C168.452271,303.952240 170.297897,304.369019 173.064743,304.358521 
	C186.225739,304.308594 199.387238,304.410095 212.548599,304.422272 
	C214.353134,304.423950 216.157867,304.227051 218.011505,304.119202 
	C218.272018,302.825653 218.636398,301.859161 218.635834,300.892853 
	C218.627136,285.901489 218.754196,270.905609 218.384018,255.922287 
	C218.302078,252.605377 216.947876,249.038391 215.288528,246.087555 
	C204.359222,226.651825 193.174332,207.359955 182.097672,188.006897 
	C176.812668,178.773026 171.545059,169.528748 166.343445,160.247772 
	C163.883728,155.859009 164.935211,154.164856 169.956177,154.276382 
	C173.119400,154.346664 176.414658,154.075806 179.397858,154.887375 
	C181.821915,155.546844 184.734802,157.072037 185.947159,159.100204 
	C195.333603,174.802704 204.362885,190.718781 213.495041,206.573181 
	C217.845169,214.125458 222.178406,221.687454 226.798630,229.731369 
	C227.938095,228.312500 228.761032,227.525223 229.303574,226.577438 
	C242.275772,203.916046 255.167709,181.208344 268.264465,158.619370 
	C269.270264,156.884628 271.565369,155.099808 273.464661,154.842972 
	C277.718994,154.267670 282.104095,154.547043 286.431244,154.659302 
	C289.653107,154.742905 290.525604,156.138184 288.824097,159.172455 
	C272.881744,187.602203 256.870758,215.995483 241.255569,244.604492 
	C238.899292,248.921494 237.517258,254.261536 237.347458,259.185699 
	C236.894287,272.327576 237.521317,285.503082 237.340790,298.660065 
	C237.280975,303.018433 238.595093,304.554413 242.970749,304.464844 
	C254.795044,304.222687 266.626282,304.326324 278.454742,304.279053 
	C286.429138,304.247162 286.379700,304.220428 288.824829,296.812012 
	C298.364655,267.907349 311.622650,240.872040 328.273254,215.334610 
	C349.940643,182.102814 356.307190,146.559677 342.554688,108.324554 
	C328.427612,69.047951 299.965363,44.803558 260.828339,34.413662 
	C229.353989,26.058016 197.452515,29.016014 167.947128,44.128792 
	C130.493622,63.312626 110.495865,95.276352 105.153831,136.288422 
	C102.468887,156.901352 106.140434,177.106247 115.744263,196.685806 
M247.132126,397.455383 
	C247.131516,373.464142 247.041580,349.472321 247.205521,325.482208 
	C247.238358,320.676880 246.004379,318.460754 240.740646,318.927704 
	C235.281631,319.412018 229.755188,319.156219 224.258041,319.185211 
	C218.967804,319.213104 213.677292,319.191254 207.602936,319.191254 
	C207.602936,322.189697 207.603821,324.646332 207.602783,327.102966 
	C207.592102,352.425049 207.563965,377.747101 207.583862,403.069183 
	C207.588135,408.504944 207.269379,408.700958 199.921738,408.941925 
	C195.896820,409.073883 193.319199,408.574768 193.429123,403.406921 
	C193.719589,389.751740 193.479584,376.085938 193.526688,362.424652 
	C193.570343,349.763824 193.606003,337.101135 193.871552,324.444000 
	C193.958237,320.312378 192.371735,318.796814 188.342575,319.003601 
	C183.855194,319.233887 179.341202,319.281799 174.853867,319.077637 
	C170.760925,318.891388 169.407318,320.493378 169.419296,324.588837 
	C169.505981,354.243561 169.368744,383.898865 169.378754,413.553986 
	C169.380600,419.036041 170.408783,419.904022 176.457855,419.906830 
	C210.943314,419.922974 245.429138,419.809326 279.913788,419.969818 
	C284.989685,419.993439 286.459351,418.262878 286.423401,413.316193 
	C286.231018,386.826965 286.337219,360.335632 286.336090,333.845001 
	C286.335938,330.180542 286.521301,326.496979 286.188751,322.861755 
	C286.069672,321.559723 284.715820,319.333954 283.854950,319.299652 
	C276.638275,319.011749 269.405151,319.135864 261.778015,319.135864 
	C261.778015,332.949097 261.772034,345.598846 261.779541,358.248627 
	C261.788544,373.410034 261.822052,388.571472 261.810608,403.732880 
	C261.808899,405.991577 262.328125,408.439758 258.815491,408.985962 
	C248.836746,410.537689 247.140915,409.231506 247.134705,399.434662 
	C247.134491,399.101440 247.133942,398.768219 247.132126,397.455383 
M249.499985,433.942932 
	C231.369904,433.940643 213.239822,433.942780 195.109741,433.932739 
	C190.951706,433.930450 186.793747,433.872681 182.635696,433.865143 
	C178.663803,433.857941 176.481796,435.826752 178.837875,439.392273 
	C181.600739,443.573364 184.747360,448.002838 188.796692,450.746796 
	C208.515579,464.109131 230.172043,465.103577 252.265671,458.377655 
	C262.371796,455.301117 271.356201,449.653137 276.297119,439.524323 
	C278.331787,435.353302 277.576874,434.074890 272.952820,433.970551 
	C265.472107,433.801788 257.984619,433.933167 249.499985,433.942932 
z"/>
<path fill="#990103" opacity="1.000000" stroke="none" 
	d="
M115.584488,196.345490 
	C106.140434,177.106247 102.468887,156.901352 105.153831,136.288422 
	C110.495865,95.276352 130.493622,63.312626 167.947128,44.128792 
	C197.452515,29.016014 229.353989,26.058016 260.828339,34.413662 
	C299.965363,44.803558 328.427612,69.047951 342.554688,108.324554 
	C356.307190,146.559677 349.940643,182.102814 328.273254,215.334610 
	C311.622650,240.872040 298.364655,267.907349 288.824829,296.812012 
	C286.379700,304.220428 286.429138,304.247162 278.454742,304.279053 
	C266.626282,304.326324 254.795044,304.222687 242.970749,304.464844 
	C238.595093,304.554413 237.280975,303.018433 237.340790,298.660065 
	C237.521317,285.503082 236.894287,272.327576 237.347458,259.185699 
	C237.517258,254.261536 238.899292,248.921494 241.255569,244.604492 
	C256.870758,215.995483 272.881744,187.602203 288.824097,159.172455 
	C290.525604,156.138184 289.653107,154.742905 286.431244,154.659302 
	C282.104095,154.547043 277.718994,154.267670 273.464661,154.842972 
	C271.565369,155.099808 269.270264,156.884628 268.264465,158.619370 
	C255.167709,181.208344 242.275772,203.916046 229.303574,226.577438 
	C228.761032,227.525223 227.938095,228.312500 226.798630,229.731369 
	C222.178406,221.687454 217.845169,214.125458 213.495041,206.573181 
	C204.362885,190.718781 195.333603,174.802704 185.947159,159.100204 
	C184.734802,157.072037 181.821915,155.546844 179.397858,154.887375 
	C176.414658,154.075806 173.119400,154.346664 169.956177,154.276382 
	C164.935211,154.164856 163.883728,155.859009 166.343445,160.247772 
	C171.545059,169.528748 176.812668,178.773026 182.097672,188.006897 
	C193.174332,207.359955 204.359222,226.651825 215.288528,246.087555 
	C216.947876,249.038391 218.302078,252.605377 218.384018,255.922287 
	C218.754196,270.905609 218.627136,285.901489 218.635834,300.892853 
	C218.636398,301.859161 218.272018,302.825653 218.011505,304.119202 
	C216.157867,304.227051 214.353134,304.423950 212.548599,304.422272 
	C199.387238,304.410095 186.225739,304.308594 173.064743,304.358521 
	C170.297897,304.369019 168.452271,303.952240 167.500076,300.820801 
	C157.351379,267.445282 142.075104,236.572250 122.043091,208.014526 
	C119.575348,204.496506 117.826340,200.474350 115.584488,196.345490 
z"/>
<path fill="#990406" opacity="1.000000" stroke="none" 
	d="
M247.132828,397.945190 
	C247.133942,398.768219 247.134491,399.101440 247.134705,399.434662 
	C247.140915,409.231506 248.836746,410.537689 258.815491,408.985962 
	C262.328125,408.439758 261.808899,405.991577 261.810608,403.732880 
	C261.822052,388.571472 261.788544,373.410034 261.779541,358.248627 
	C261.772034,345.598846 261.778015,332.949097 261.778015,319.135864 
	C269.405151,319.135864 276.638275,319.011749 283.854950,319.299652 
	C284.715820,319.333954 286.069672,321.559723 286.188751,322.861755 
	C286.521301,326.496979 286.335938,330.180542 286.336090,333.845001 
	C286.337219,360.335632 286.231018,386.826965 286.423401,413.316193 
	C286.459351,418.262878 284.989685,419.993439 279.913788,419.969818 
	C245.429138,419.809326 210.943314,419.922974 176.457855,419.906830 
	C170.408783,419.904022 169.380600,419.036041 169.378754,413.553986 
	C169.368744,383.898865 169.505981,354.243561 169.419296,324.588837 
	C169.407318,320.493378 170.760925,318.891388 174.853867,319.077637 
	C179.341202,319.281799 183.855194,319.233887 188.342575,319.003601 
	C192.371735,318.796814 193.958237,320.312378 193.871552,324.444000 
	C193.606003,337.101135 193.570343,349.763824 193.526688,362.424652 
	C193.479584,376.085938 193.719589,389.751740 193.429123,403.406921 
	C193.319199,408.574768 195.896820,409.073883 199.921738,408.941925 
	C207.269379,408.700958 207.588135,408.504944 207.583862,403.069183 
	C207.563965,377.747101 207.592102,352.425049 207.602783,327.102966 
	C207.603821,324.646332 207.602936,322.189697 207.602936,319.191254 
	C213.677292,319.191254 218.967804,319.213104 224.258041,319.185211 
	C229.755188,319.156219 235.281631,319.412018 240.740646,318.927704 
	C246.004379,318.460754 247.238358,320.676880 247.205521,325.482208 
	C247.041580,349.472321 247.131516,373.464142 247.132828,397.945190 
z"/>
<path fill="#990506" opacity="1.000000" stroke="none" 
	d="
M249.999969,433.940369 
	C257.984619,433.933167 265.472107,433.801788 272.952820,433.970551 
	C277.576874,434.074890 278.331787,435.353302 276.297119,439.524323 
	C271.356201,449.653137 262.371796,455.301117 252.265671,458.377655 
	C230.172043,465.103577 208.515579,464.109131 188.796692,450.746796 
	C184.747360,448.002838 181.600739,443.573364 178.837875,439.392273 
	C176.481796,435.826752 178.663803,433.857941 182.635696,433.865143 
	C186.793747,433.872681 190.951706,433.930450 195.109741,433.932739 
	C213.239822,433.942780 231.369904,433.940643 249.999969,433.940369 
z"/>
</svg>